<?xml version="1.0" encoding="utf-8"?>
<!-- Generator: Adobe Illustrator 24.0.1, SVG Export Plug-In . SVG Version: 6.00 Build 0)  -->
<svg version="1.1" id="Layer_1" xmlns="http://www.w3.org/2000/svg" xmlns:xlink="http://www.w3.org/1999/xlink" x="0px" y="0px"
	 viewBox="0 0 700 700" style="enable-background:new 0 0 700 700;" xml:space="preserve">
<style type="text/css">
	.st0{fill:#FFFFFF;}
</style>
<g>
	<path class="st0" d="M520.7,243.8c0.1-18.2-8.4-35.4-22.8-46.5c-14.4-11.1-33.2-14.8-50.8-10c-2.1-1.1-4.1-2.1-6.2-3.1l-42.2-17.4
		c16.3-16.4,25.4-38.6,25.3-61.7c-0.1-23.1-9.3-45.3-25.6-61.6C382,27.2,359.9,18,336.7,18s-45.3,9.2-61.7,25.5
		c-16.4,16.3-25.6,38.5-25.6,61.6c-0.1,23.1,9.1,45.3,25.3,61.7l-42.2,17.4c-31.8,13.1-53.2,46.9-53.2,84.1v99.8
		c0,20.3,11.8,38.6,29.5,45.6l29.1,10.9v257c0,5.2,4.2,9.3,9.3,9.3s9.3-4.2,9.3-9.3v-250l38.9,14.5h0c10.1,4.1,21.7,2.8,30.6-3.4
		c4.3-3,7.9-6.9,10.6-11.4c2.7,4.5,6.3,8.4,10.7,11.4c5.4,3.7,11.9,5.8,18.5,5.8c4.1,0,8.1-0.8,11.9-2.3l39.1-14.6v250
		c0,5.2,4.2,9.3,9.3,9.3c5.1,0,9.3-4.2,9.3-9.3v-257l29.4-11c17.6-7,29.3-25.3,29.3-45.6v-75.4C510.7,281.9,520.6,263.5,520.7,243.8
		L520.7,243.8z M336.8,36.7c18.2,0,35.7,7.2,48.6,20.1c12.9,12.9,20.1,30.4,20.1,48.6c0,18.2-7.2,35.7-20.1,48.6
		c-12.9,12.9-30.4,20.1-48.6,20.1c-18.2,0-35.7-7.2-48.6-20.1c-12.9-12.9-20.1-30.4-20.1-48.6c0-18.2,7.3-35.7,20.1-48.5
		C301.1,44,318.6,36.8,336.8,36.7L336.8,36.7z M315.7,427.4c-3.9,2.8-9,3.3-13.5,1.5l-86.5-32.4c-10.6-4.2-17.6-15.5-17.6-28.2
		v-99.8c0-29.7,16.8-56.6,41.7-66.9l52-21.4c13.6,8.3,29.2,12.7,45.1,12.7c15.9,0,31.5-4.4,45.1-12.7l43.8,18h0
		c-8.4,6.7-14.8,15.5-18.5,25.6c-3.7,10-4.6,20.9-2.5,31.4c-29.9,2.5-104.3,17.1-141.1,97.8l-7.6-3.1v0c-4.9-2.6-8-7.8-7.8-13.3v-59
		c0-5.2-4.2-9.3-9.3-9.3c-5.1,0-9.3,4.2-9.3,9.3v58.9c-0.1,6.4,1.6,12.7,5,18.1c3.4,5.4,8.3,9.7,14,12.4l64.7,25.9
		c6.2,2.8,10.3,9.9,10.3,18.2v0C323.9,417.5,320.9,423.6,315.7,427.4L315.7,427.4z M336.8,390.1c-3.8-6.3-9.4-11.3-16.1-14.4
		L281,359.8c36.2-78.5,110.2-86.1,130.7-86.7l0,0c7.2,12.3,18.6,21.6,32.1,26.1c-3.1,16.5-11.2,44.5-25.8,50.4l-65.4,26.3
		C345.9,378.9,340.4,383.9,336.8,390.1L336.8,390.1z M475.5,368.2c0,12.7-7,24-17.4,28.2l-87,32.5c-4.4,1.8-9.4,1.2-13.3-1.5
		c-5.4-3.9-8.4-10.3-8.1-16.9c0-7.7,4.2-14.8,10-17.4l65-26.1c24.7-9.9,34.2-47,37.4-64.7c4.5,0,9-0.6,13.3-1.6L475.5,368.2z
		 M462.1,283.6c-10.6,0-20.7-4.2-28.2-11.7c-7.5-7.5-11.7-17.6-11.7-28.2c0-10.6,4.2-20.7,11.7-28.2c7.5-7.5,17.6-11.7,28.2-11.7
		c10.6,0,20.7,4.2,28.2,11.7c7.5,7.5,11.7,17.6,11.7,28.2c0,10.6-4.2,20.7-11.7,28.2C482.8,279.4,472.7,283.6,462.1,283.6
		L462.1,283.6z"/>
	<path class="st0" d="M336.8,517.9c-5.1,0-9.3,4.2-9.3,9.3v154.5c0,5.2,4.2,9.3,9.3,9.3c5.2,0,9.3-4.2,9.3-9.3V527.2
		c0-2.5-1-4.8-2.7-6.6C341.6,518.9,339.3,517.9,336.8,517.9L336.8,517.9z"/>
</g>
</svg>
